# xmcd
#
# Track frame offsets:
#	150
#	24490
#	38627
#	56472
#	76800
#	96192
#	126765
#	147375
#	168515
#	190095
#	200915
#	219717
#	240720
#	265955
#	305745
#	321477
#	336287
#
# Disc length: 4631 seconds
# Revision: 5
# Processed by: cddbd v1.5.2PL0 Copyright (c) Steve Scherf et al.
# Submitted via: dBpowerAMP V12.0
#
DISCID=01121511
DTITLE=Stevie Ray Vaughan and Double Trouble - The Essential Stevie Ray Vaughan and Double Trouble, Disc 2
DYEAR=2002
DGENRE=Blues
TTITLE0=Say What!
TTITLE1=Look at Little Sister
TTITLE2=Change It
TTITLE3=Come On (Part III)
TTITLE4=Life Without You
TTITLE5=Little Wing
TTITLE6=Willie The Wimp (Live)
TTITLE7=Superstition (Live)
TTITLE8=Leave My Girl Alone (live)
TTITLE9=The House Is Rockin'
TTITLE10=Crossfire
TTITLE11=Tightrope
TTITLE12=Wall of Denial
TTITLE13=Riviera Paradise
TTITLE14=Telephone Song (The Vaughn Bros.)
TTITLE15=Long Way From Home (The Vaughn Bros.)
TTITLE16=Life by the Drop
EXTD=
EXTT0=
EXTT1=
EXTT2=
EXTT3=
EXTT4=
EXTT5=
EXTT6=
EXTT7=
EXTT8=
EXTT9=
EXTT10=
EXTT11=
EXTT12=
EXTT13=
EXTT14=
EXTT15=
EXTT16=
PLAYORDER=
